PathFileType	4	(X/Y/Z)	Walk6.trc
DataRate	CameraRate	NumFrames	NumMarkers	Units	OrigDataRate	OrigDataStartFrame	OrigNumFrames
200.000000	200.000000	5	61	mm	200.000000	414	449
Frame#	Times		LFHD		RFHD		CLAV		STRN		LASI		RASI		RACR1		RUA1		RFA1		RWRU		RCAR		LACR1		LUA1		LFA1		LWRU		LCAR		RTH3		RTH2		RTH4		RTB3		RTB4		LTH1		LTH3		LTH2		LTH4		LLFC		LTB1		LTB2		LTB4		RTH1		RTB1		RMT5		RMFC		RToe		RMT1		RMMAL		LElbow		RTB2		LBHD		RLFC		LWRR		RLMAL		RCAL		RWRR		RElbow		T10		RBack		RPSI		RBHD		LTB3		LMFC		LPSI		LToe		LLMAL		C7		RElbowM		LCAL		LElbowM		LMT5		LMT1		LMMAL
			X1	Y1	Z1	X2	Y2	Z2	X3	Y3	Z3	X4	Y4	Z4	X5	Y5	Z5	X6	Y6	Z6	X7	Y7	Z7	X8	Y8	Z8	X9	Y9	Z9	X10	Y10	Z10	X11	Y11	Z11	X12	Y12	Z12	X13	Y13	Z13	X14	Y14	Z14	X15	Y15	Z15	X16	Y16	Z16	X17	Y17	Z17	X18	Y18	Z18	X19	Y19	Z19	X20	Y20	Z20	X21	Y21	Z21	X22	Y22	Z22	X23	Y23	Z23	X24	Y24	Z24	X25	Y25	Z25	X26	Y26	Z26	X27	Y27	Z27	X28	Y28	Z28	X29	Y29	Z29	X30	Y30	Z30	X31	Y31	Z31	X32	Y32	Z32	X33	Y33	Z33	X34	Y34	Z34	X35	Y35	Z35	X36	Y36	Z36	X37	Y37	Z37	X38	Y38	Z38	X39	Y39	Z39	X40	Y40	Z40	X41	Y41	Z41	X42	Y42	Z42	X43	Y43	Z43	X44	Y44	Z44	X45	Y45	Z45	X46	Y46	Z46	X47	Y47	Z47	X48	Y48	Z48	X49	Y49	Z49	X50	Y50	Z50	X51	Y51	Z51	X52	Y52	Z52	X53	Y53	Z53	X54	Y54	Z54	X55	Y55	Z55	X56	Y56	Z56	X57	Y57	Z57	X58	Y58	Z58	X59	Y59	Z59	X60	Y60	Z60	X61	Y61	Z61

414	2.07	1051.5	1593	-36.749	1045.7	1595.8	62.69	1003.9	1322.3	14.858	1027.3	1189.2	21.438	989.66	917.8	-94.431	984.17	928.42	153.84	925.33	1356.8	177.21	916.25	1186.3	230.33	939.39	896.91	288.22	989.6	780.75	257.18	976.88	714.89	306.42	938.99	1372.1	-139.84	945.53	1201.4	-209.99	1027.4	928.96	-268.58	1123.9	852.75	-249.01	1130.7	784.69	-286.64	1045	606.92	196.06	1059.1	711.93	197.01	1009.1	682.54	212.71	998.97	212.32	123.81	1042.1	285.87	134.65	933.83	748.66	-156.74	916.26	580.96	-124.06	979.18	664.62	-118.62	923.57	662.92	-141.35	895	439.66	-100.36	915.26	338.55	-30.304	880.99	253.01	-83.473	891.75	255.54	-23.199	973.77	759.88	230.59	1085.9	360.66	142.82	977.82	55.218	146.39	1098.7	468.51	44.424	1063.5	44.144	110.23	1021.4	58.689	71.584	929.09	148.14	53.863	945.53	1045.9	-245.47	998.42	308.18	171	906.88	1534.9	-65.878	1099.8	472.67	172.28	1063.8	817.75	-255.58	900.59	137.04	131.56	847.8	130.09	83.067	931.71	775.85	294.38	901.75	1021.5	262.33	816.13	1213.5	12.177	811.39	1298.9	80.086	812.49	962.11	77.373	901.49	1545.2	79.226	873.69	173.53	-14.755	863.09	437.17	29.57	811.41	969.07	-22.825	999.38	25.834	-5.003	807.62	68.295	-55.665	892.78	1424.3	9.5863	875.56	1015.9	187.29	748.7	43.579	-15.747	931.77	1018.9	-174.31	911.56	23.588	-63.064	940.89	30.823	21.17	818.6	88.907	24.72
415	2.075	1058	1592.8	-36.605	1052.2	1595.4	62.844	1010.4	1321.9	14.714	1033.7	1188.7	21.131	995.6	917.39	-94.779	990.9	928.06	153.57	931.68	1356.4	177.08	921.71	1185.9	230.36	943.33	896.6	288.93	992.94	780	258.6	979.27	714.33	307.87	945.62	1371.9	-139.97	952.71	1201.3	-210.29	1038.4	930.31	-268.31	1136.4	856.39	-247.87	1145	788.27	-285.02	1052.9	607.37	195.99	1066.5	712.43	197.39	1016.6	682.73	212.69	1015.9	210.11	123.6	1056.6	285.05	134.51	938.41	748.49	-156.86	919.2	581.01	-124.18	982.85	663.91	-118.72	927.31	662.86	-141.44	896.32	439.85	-100.62	916.38	338.61	-30.55	881.64	253.19	-83.62	892.59	255.71	-23.368	980.65	759.81	230.97	1097.7	361.23	142.68	1000.1	52.658	146.4	1107.2	469.58	44.451	1086.2	44.538	110.45	1043.7	57.62	71.681	948.4	143.58	53.668	953.87	1045.8	-245.93	1012.2	305.83	170.92	913.45	1534.6	-65.924	1108.6	473.49	172.01	1077.1	819.97	-254.84	920.15	131.55	131.36	867.69	122.78	82.687	934.62	775.54	295.29	906.7	1021.3	262.45	822.61	1213.3	12.014	817.86	1298.6	79.778	819.02	961.86	77.698	907.94	1544.7	79.189	874.25	173.75	-14.861	864.65	437.56	29.457	817.61	968.83	-22.459	999.45	25.807	-5.0148	807.64	68.727	-55.507	899.39	1424	9.4329	881.09	1015.5	187.33	748.75	44.141	-15.49	940.23	1018.6	-174.89	911.52	23.584	-63.002	940.96	30.823	21.127	818.81	89.362	24.833
416	2.08	1064.6	1592.5	-36.467	1058.6	1595	62.992	1016.9	1321.4	14.579	1040.1	1188.2	20.833	1001.5	916.92	-95.133	997.66	927.61	153.31	938.08	1355.9	176.96	927.18	1185.5	230.4	947.3	896.25	289.65	996.33	779.24	260.04	981.71	713.75	309.31	952.27	1371.6	-140.08	959.89	1201.1	-210.58	1049.2	931.66	-268.01	1148.8	860.04	-246.69	1159.2	791.9	-283.34	1060.7	607.67	195.91	1073.7	712.78	197.76	1024	682.8	212.69	1033	207.97	123.4	1071	284.23	134.35	942.95	748.28	-157	922.15	581.03	-124.3	986.51	663.21	-118.86	931.05	662.8	-141.56	897.71	440.03	-100.87	917.57	338.67	-30.795	882.34	253.36	-83.767	893.46	255.88	-23.535	987.5	759.62	231.35	1109.4	361.75	142.51	1022.6	50.311	146.41	1115.4	470.44	44.464	1108.9	45.185	110.61	1066.1	56.786	71.757	967.87	139.14	53.526	962.19	1045.7	-246.38	1026.1	303.41	170.87	920.02	1534.3	-65.975	1117.1	474.13	171.73	1090.3	822.21	-254.07	939.94	126.14	131.23	887.87	115.57	82.411	937.57	775.21	296.19	911.67	1021	262.59	829.1	1213	11.883	824.37	1298.3	79.494	825.57	961.55	78.061	914.4	1544.2	79.147	874.83	173.98	-14.966	866.31	437.93	29.347	823.81	968.53	-22.049	999.5	25.779	-5.0327	807.67	69.175	-55.349	906.04	1423.7	9.2891	886.63	1015.1	187.39	748.81	44.727	-15.228	948.65	1018.2	-175.47	911.46	23.581	-62.939	941.03	30.821	21.081	819.03	89.829	24.948
417	2.085	1071.1	1592.2	-36.334	1065	1594.6	63.133	1023.5	1320.9	14.454	1046.6	1187.6	20.548	1007.4	916.4	-95.491	1004.5	927.09	153.05	944.54	1355.4	176.85	932.67	1185.1	230.45	951.3	895.87	290.37	999.77	778.47	261.49	984.2	713.16	310.74	958.95	1371.3	-140.19	967.07	1200.9	-210.84	1059.9	933.01	-267.68	1160.9	863.68	-245.46	1173.2	795.58	-281.61	1068.3	607.82	195.8	1080.9	712.98	198.1	1031.3	682.75	212.72	1050.1	205.92	123.2	1085.4	283.44	134.16	947.46	748.06	-157.16	925.12	581.04	-124.44	990.18	662.5	-119.04	934.79	662.73	-141.7	899.19	440.21	-101.12	918.82	338.72	-31.037	883.09	253.54	-83.911	894.38	256.05	-23.698	994.34	759.33	231.74	1120.9	362.22	142.29	1045.2	48.209	146.43	1123.3	471.09	44.46	1131.7	46.11	110.71	1088.5	56.213	71.809	987.46	134.83	53.434	970.49	1045.5	-246.81	1039.9	300.95	170.85	926.61	1533.8	-66.029	1125.5	474.6	171.43	1103.4	824.49	-253.28	959.96	120.86	131.17	908.34	108.5	82.237	940.58	774.86	297.09	916.67	1020.7	262.75	835.62	1212.6	11.786	830.91	1297.8	79.235	832.14	961.18	78.461	920.87	1543.6	79.1	875.44	174.2	-15.07	868.1	438.28	29.243	830.01	968.19	-21.596	999.55	25.748	-5.0566	807.71	69.636	-55.191	912.73	1423.3	9.1564	892.2	1014.6	187.47	748.87	45.337	-14.962	957.02	1017.8	-176.05	911.4	23.579	-62.874	941.09	30.819	21.034	819.27	90.307	25.063
418	2.09	1077.7	1591.9	-36.207	1071.4	1594.2	63.268	1030.1	1320.3	14.338	1053.1	1186.9	20.278	1013.3	915.84	-95.852	1011.3	926.49	152.79	951.05	1354.8	176.76	938.19	1184.7	230.51	955.34	895.47	291.11	1003.3	777.7	262.95	986.75	712.56	312.16	965.65	1370.9	-140.28	974.23	1200.6	-211.08	1070.6	934.35	-267.31	1172.9	867.3	-244.18	1187.1	799.29	-279.84	1075.7	607.83	195.68	1088	713.01	198.42	1038.6	682.56	212.77	1067.2	203.98	123.01	1099.7	282.68	133.96	951.94	747.81	-157.33	928.12	581.04	-124.57	993.85	661.8	-119.25	938.54	662.66	-141.88	900.77	440.38	-101.36	920.13	338.75	-31.275	883.89	253.72	-84.051	895.35	256.2	-23.855	1001.2	758.94	232.13	1132.3	362.64	142.03	1067.9	46.384	146.45	1130.9	471.52	44.438	1154.4	47.334	110.75	1111	55.925	71.834	1007.2	130.7	53.39	978.76	1045.2	-247.22	1053.9	298.47	170.87	933.21	1533.3	-66.086	1133.6	474.9	171.12	1116.3	826.8	-252.46	980.2	115.75	131.18	929.07	101.59	82.162	943.64	774.48	297.97	921.69	1020.4	262.93	842.16	1212.3	11.723	837.5	1297.4	79.003	838.74	960.76	78.9	927.34	1542.9	79.049	876.08	174.42	-15.171	870	438.62	29.146	836.23	967.8	-21.1	999.59	25.713	-5.0861	807.76	70.111	-55.034	919.45	1422.9	9.0363	897.79	1014	187.55	748.94	45.975	-14.695	965.36	1017.2	-176.62	911.33	23.581	-62.807	941.16	30.816	20.986	819.54	90.794	25.176
